<svg width="214" height="39" viewBox="0 0 214 39" fill="none" xmlns="http://www.w3.org/2000/svg">
<path fill-rule="evenodd" clip-rule="evenodd" d="M1.85135 8.3146H0L13.8826 35.5586C14.6491 37.0628 15.8834 38.0585 17.2687 38.5453L1.85135 8.3146ZM3.92678 8.3146L19.5077 38.8922C19.9889 38.8783 20.469 38.809 20.9359 38.6842L5.44754 8.3146H3.92678ZM24.7717 35.5586C24.243 36.5962 23.4917 37.3919 22.6217 37.9454L7.52296 8.3146H9.2487L19.3272 28.0761L42.9111 0L38.6833 8.25769L24.7717 35.5586Z" fill="white"/>
<path d="M201.278 38.8922C193.978 38.8922 188.637 33.8178 188.637 26.6958C188.637 19.5738 193.978 14.5439 201.278 14.5439C208.667 14.5439 213.964 19.5738 213.964 26.6958C213.964 33.8178 208.667 38.8922 201.278 38.8922ZM201.278 34.1294C205.329 34.1294 208.356 31.2361 208.356 26.6958C208.356 22.1556 205.329 19.2623 201.278 19.2623C197.272 19.2623 194.245 22.1556 194.245 26.6958C194.245 31.2361 197.272 34.1294 201.278 34.1294Z" fill="white"/>
<path d="M178.458 38.8922V5.86401H184.023V38.8922H178.458Z" fill="white"/>
<path d="M167.799 14.811H173.363V38.5806H168.066V35.5538C166.285 37.7349 163.481 38.8922 160.41 38.8922C154.312 38.8922 150.172 35.5538 150.172 28.3873V14.811H155.736V27.6306C155.736 31.9483 157.783 33.9958 161.3 33.9958C165.173 33.9958 167.799 31.5922 167.799 26.8294V14.811Z" fill="white"/>
<path d="M133.776 14.544C140.72 14.544 145.839 19.3068 145.839 26.6958C145.839 34.0849 140.72 38.8922 133.776 38.8922C130.527 38.8922 127.767 37.7794 125.898 35.5093V38.5806H120.601V5.55249H126.165V17.7044C128.079 15.5678 130.749 14.544 133.776 14.544ZM133.153 34.1294C137.159 34.1294 140.186 31.2361 140.186 26.6958C140.186 22.1556 137.159 19.2623 133.153 19.2623C129.147 19.2623 126.076 22.1556 126.076 26.6958C126.076 31.2361 129.147 34.1294 133.153 34.1294Z" fill="white"/>
<path d="M104.139 14.5439C110.994 14.5439 114.956 17.7933 114.956 24.6482V38.5806H109.703V35.6873C108.368 37.7349 105.786 38.8922 102.225 38.8922C96.7946 38.8922 93.3672 35.9099 93.3672 31.7702C93.3672 27.8086 96.0379 24.6928 103.249 24.6928H109.392V24.3367C109.392 21.0873 107.433 19.1732 103.471 19.1732C100.801 19.1732 98.041 20.0635 96.2605 21.5324L94.0794 17.4818C96.6166 15.5232 100.311 14.5439 104.139 14.5439ZM103.382 34.8416C106.098 34.8416 108.457 33.5952 109.392 31.147V28.3873H103.65C99.866 28.3873 98.8422 29.8117 98.8422 31.5477C98.8422 33.5507 100.534 34.8416 103.382 34.8416Z" fill="white"/>
<path d="M84.4038 38.8922L76.169 28.6988L72.0294 32.6159V38.8922H66.4653V5.86401H72.0294V25.8055L83.5581 15.1226H90.2349L80.3087 25.0933L91.1697 38.8922H84.4038Z" fill="white"/>
<path d="M49.1884 38.8922C41.8884 38.8922 36.5469 33.8178 36.5469 26.6958C36.5469 19.5738 41.8884 14.5439 49.1884 14.5439C56.5774 14.5439 61.8744 19.5738 61.8744 26.6958C61.8744 33.8178 56.5774 38.8922 49.1884 38.8922ZM49.1884 34.1294C53.239 34.1294 56.2658 31.2361 56.2658 26.6958C56.2658 22.1556 53.239 19.2623 49.1884 19.2623C45.1823 19.2623 42.1554 22.1556 42.1554 26.6958C42.1554 31.2361 45.1823 34.1294 49.1884 34.1294Z" fill="white"/>
</svg>
