<svg width="85" height="85" viewBox="0 0 85 85" fill="none" xmlns="http://www.w3.org/2000/svg">
<path fill-rule="evenodd" clip-rule="evenodd" d="M4.72266 9.03788C0 15.2202 0 24.1813 0 42.1035C0 60.0257 0 68.9868 4.72266 75.1691C5.96313 76.7928 7.41431 78.2439 9.03784 79.4843C15.2202 84.207 24.1814 84.207 42.1035 84.207C60.0259 84.207 68.9868 84.207 75.1689 79.4843C76.793 78.2439 78.2441 76.7928 79.4844 75.1691C84.207 68.9868 84.207 60.0257 84.207 42.1035C84.207 24.1813 84.207 15.2202 79.4844 9.03788C78.2441 7.41421 76.793 5.96305 75.1689 4.72272C68.9868 0 60.0259 0 42.1035 0C24.1814 0 15.2202 0 9.03784 4.72272C7.41431 5.96305 5.96313 7.41421 4.72266 9.03788ZM47.1934 61.7766C46.5276 63.0833 45.5815 64.0852 44.4861 64.7822L25.4731 27.47H27.6462L40.3374 52.3544L70.0352 17L64.7114 27.3984L47.1934 61.7766ZM20.9448 27.47L40.5647 65.9744C41.1707 65.957 41.7754 65.8696 42.3633 65.7125L22.8596 27.47H20.9448ZM18.3313 27.47H16L33.4814 61.7766C34.4468 63.6708 36.001 64.9245 37.7454 65.5377L18.3313 27.47Z" fill="#2684FC"/>
</svg>
